<mxfile host="app.diagrams.net" modified="2020-08-04T09:07:47.066Z" agent="5.0 (Macintosh)" etag="YfXzvZFQv2rik-UVHLjy" version="13.5.9" type="github">
  <diagram id="xIhmlWAnGe2wvXt7eP8V" name="Page-1">
    <mxGraphModel dx="1426" dy="754" grid="1" gridSize="10" guides="1" tooltips="1" connect="1" arrows="1" fold="1" page="1" pageScale="1" pageWidth="1169" pageHeight="827" math="0" shadow="0">
      <root>
        <mxCell id="0" />
        <mxCell id="1" parent="0" />
        <mxCell id="FlRqxXbXrsTHPr5EMkH9-3" value="" style="edgeStyle=orthogonalEdgeStyle;rounded=0;orthogonalLoop=1;jettySize=auto;html=1;" edge="1" parent="1" source="FlRqxXbXrsTHPr5EMkH9-1" target="FlRqxXbXrsTHPr5EMkH9-2">
          <mxGeometry relative="1" as="geometry">
            <mxPoint x="620" y="480" as="targetPoint" />
            <Array as="points">
              <mxPoint x="580" y="450" />
              <mxPoint x="580" y="450" />
            </Array>
          </mxGeometry>
        </mxCell>
        <mxCell id="FlRqxXbXrsTHPr5EMkH9-6" style="edgeStyle=orthogonalEdgeStyle;rounded=0;orthogonalLoop=1;jettySize=auto;html=1;exitX=0.75;exitY=1;exitDx=0;exitDy=0;" edge="1" parent="1" source="FlRqxXbXrsTHPr5EMkH9-1" target="FlRqxXbXrsTHPr5EMkH9-4">
          <mxGeometry relative="1" as="geometry" />
        </mxCell>
        <mxCell id="FlRqxXbXrsTHPr5EMkH9-7" style="edgeStyle=orthogonalEdgeStyle;rounded=0;orthogonalLoop=1;jettySize=auto;html=1;exitX=0.25;exitY=1;exitDx=0;exitDy=0;entryX=0.5;entryY=0;entryDx=0;entryDy=0;" edge="1" parent="1" source="FlRqxXbXrsTHPr5EMkH9-1" target="FlRqxXbXrsTHPr5EMkH9-5">
          <mxGeometry relative="1" as="geometry" />
        </mxCell>
        <mxCell id="FlRqxXbXrsTHPr5EMkH9-1" value="cognitive load" style="rounded=0;whiteSpace=wrap;html=1;" vertex="1" parent="1">
          <mxGeometry x="520" y="360" width="120" height="50" as="geometry" />
        </mxCell>
        <mxCell id="FlRqxXbXrsTHPr5EMkH9-11" value="is" style="edgeStyle=orthogonalEdgeStyle;rounded=0;orthogonalLoop=1;jettySize=auto;html=1;" edge="1" parent="1" source="FlRqxXbXrsTHPr5EMkH9-2" target="FlRqxXbXrsTHPr5EMkH9-10">
          <mxGeometry relative="1" as="geometry" />
        </mxCell>
        <mxCell id="FlRqxXbXrsTHPr5EMkH9-2" value="intrinsic load" style="ellipse;whiteSpace=wrap;html=1;rounded=0;" vertex="1" parent="1">
          <mxGeometry x="520" y="460" width="120" height="80" as="geometry" />
        </mxCell>
        <mxCell id="FlRqxXbXrsTHPr5EMkH9-20" value="is an" style="edgeStyle=orthogonalEdgeStyle;rounded=0;orthogonalLoop=1;jettySize=auto;html=1;" edge="1" parent="1" source="FlRqxXbXrsTHPr5EMkH9-4" target="FlRqxXbXrsTHPr5EMkH9-19">
          <mxGeometry relative="1" as="geometry" />
        </mxCell>
        <mxCell id="FlRqxXbXrsTHPr5EMkH9-4" value="germane load" style="ellipse;whiteSpace=wrap;html=1;rounded=0;" vertex="1" parent="1">
          <mxGeometry x="670" y="460" width="120" height="80" as="geometry" />
        </mxCell>
        <mxCell id="FlRqxXbXrsTHPr5EMkH9-13" value="is" style="edgeStyle=orthogonalEdgeStyle;rounded=0;orthogonalLoop=1;jettySize=auto;html=1;" edge="1" parent="1" source="FlRqxXbXrsTHPr5EMkH9-5" target="FlRqxXbXrsTHPr5EMkH9-12">
          <mxGeometry relative="1" as="geometry" />
        </mxCell>
        <mxCell id="FlRqxXbXrsTHPr5EMkH9-5" value="extraneous load" style="ellipse;whiteSpace=wrap;html=1;rounded=0;" vertex="1" parent="1">
          <mxGeometry x="380" y="460" width="120" height="80" as="geometry" />
        </mxCell>
        <mxCell id="FlRqxXbXrsTHPr5EMkH9-8" value="new information to old" style="whiteSpace=wrap;html=1;rounded=0;" vertex="1" parent="1">
          <mxGeometry x="870" y="470" width="120" height="60" as="geometry" />
        </mxCell>
        <mxCell id="FlRqxXbXrsTHPr5EMkH9-10" value="learners keep in mind to learn" style="whiteSpace=wrap;html=1;rounded=0;" vertex="1" parent="1">
          <mxGeometry x="520" y="630" width="120" height="60" as="geometry" />
        </mxCell>
        <mxCell id="FlRqxXbXrsTHPr5EMkH9-12" value="distraction from learning" style="whiteSpace=wrap;html=1;rounded=0;" vertex="1" parent="1">
          <mxGeometry x="380" y="630" width="120" height="60" as="geometry" />
        </mxCell>
        <mxCell id="FlRqxXbXrsTHPr5EMkH9-15" value="are" style="edgeStyle=orthogonalEdgeStyle;rounded=0;orthogonalLoop=1;jettySize=auto;html=1;" edge="1" parent="1" source="FlRqxXbXrsTHPr5EMkH9-14" target="FlRqxXbXrsTHPr5EMkH9-12">
          <mxGeometry relative="1" as="geometry" />
        </mxCell>
        <mxCell id="FlRqxXbXrsTHPr5EMkH9-14" value="Laptop notifications" style="rounded=1;whiteSpace=wrap;html=1;" vertex="1" parent="1">
          <mxGeometry x="180" y="630" width="120" height="60" as="geometry" />
        </mxCell>
        <mxCell id="FlRqxXbXrsTHPr5EMkH9-18" value="&lt;div&gt;needs to switch off&lt;/div&gt;" style="edgeStyle=orthogonalEdgeStyle;rounded=0;orthogonalLoop=1;jettySize=auto;html=1;" edge="1" parent="1" source="FlRqxXbXrsTHPr5EMkH9-16" target="FlRqxXbXrsTHPr5EMkH9-14">
          <mxGeometry relative="1" as="geometry" />
        </mxCell>
        <mxCell id="FlRqxXbXrsTHPr5EMkH9-16" value="teacher" style="whiteSpace=wrap;html=1;rounded=1;" vertex="1" parent="1">
          <mxGeometry x="180" y="490" width="120" height="60" as="geometry" />
        </mxCell>
        <mxCell id="FlRqxXbXrsTHPr5EMkH9-21" value="links" style="edgeStyle=orthogonalEdgeStyle;rounded=0;orthogonalLoop=1;jettySize=auto;html=1;exitX=1;exitY=0.5;exitDx=0;exitDy=0;entryX=0.5;entryY=1;entryDx=0;entryDy=0;" edge="1" parent="1" source="FlRqxXbXrsTHPr5EMkH9-19" target="FlRqxXbXrsTHPr5EMkH9-8">
          <mxGeometry relative="1" as="geometry" />
        </mxCell>
        <mxCell id="FlRqxXbXrsTHPr5EMkH9-19" value="effort" style="whiteSpace=wrap;html=1;rounded=0;" vertex="1" parent="1">
          <mxGeometry x="670" y="630" width="120" height="60" as="geometry" />
        </mxCell>
      </root>
    </mxGraphModel>
  </diagram>
</mxfile>
